<mxfile host="app.diagrams.net" agent="Mozilla/5.0 (Windows NT 10.0; Win64; x64) AppleWebKit/537.36 (KHTML, like Gecko) Chrome/136.0.0.0 Safari/537.36" version="27.0.6">
  <diagram name="Page-1" id="gG8F5olyI8tmzku6u4oK">
    <mxGraphModel dx="689" dy="873" grid="1" gridSize="10" guides="1" tooltips="1" connect="1" arrows="1" fold="1" page="1" pageScale="1" pageWidth="850" pageHeight="1100" math="0" shadow="0">
      <root>
        <mxCell id="0" />
        <mxCell id="1" parent="0" />
        <mxCell id="Mqjfje0jI8EnwAkRnA07-51" style="edgeStyle=orthogonalEdgeStyle;rounded=0;orthogonalLoop=1;jettySize=auto;html=1;entryX=0;entryY=0.5;entryDx=0;entryDy=0;endArrow=none;startFill=0;" edge="1" parent="1" source="Mqjfje0jI8EnwAkRnA07-7" target="Mqjfje0jI8EnwAkRnA07-41">
          <mxGeometry relative="1" as="geometry">
            <Array as="points">
              <mxPoint x="400" y="750" />
              <mxPoint x="400" y="230" />
            </Array>
          </mxGeometry>
        </mxCell>
        <mxCell id="Mqjfje0jI8EnwAkRnA07-7" value="Viaje" style="swimlane;fontStyle=0;childLayout=stackLayout;horizontal=1;startSize=30;horizontalStack=0;resizeParent=1;resizeParentMax=0;resizeLast=0;collapsible=1;marginBottom=0;whiteSpace=wrap;html=1;" vertex="1" parent="1">
          <mxGeometry x="80" y="570" width="260" height="360" as="geometry" />
        </mxCell>
        <mxCell id="Mqjfje0jI8EnwAkRnA07-8" value="- id: Long" style="text;strokeColor=none;fillColor=none;align=left;verticalAlign=middle;spacingLeft=4;spacingRight=4;overflow=hidden;points=[[0,0.5],[1,0.5]];portConstraint=eastwest;rotatable=0;whiteSpace=wrap;html=1;" vertex="1" parent="Mqjfje0jI8EnwAkRnA07-7">
          <mxGeometry y="30" width="260" height="30" as="geometry" />
        </mxCell>
        <mxCell id="Mqjfje0jI8EnwAkRnA07-9" value="- origen: String" style="text;strokeColor=none;fillColor=none;align=left;verticalAlign=middle;spacingLeft=4;spacingRight=4;overflow=hidden;points=[[0,0.5],[1,0.5]];portConstraint=eastwest;rotatable=0;whiteSpace=wrap;html=1;" vertex="1" parent="Mqjfje0jI8EnwAkRnA07-7">
          <mxGeometry y="60" width="260" height="30" as="geometry" />
        </mxCell>
        <mxCell id="Mqjfje0jI8EnwAkRnA07-10" value="- destino: String" style="text;strokeColor=none;fillColor=none;align=left;verticalAlign=middle;spacingLeft=4;spacingRight=4;overflow=hidden;points=[[0,0.5],[1,0.5]];portConstraint=eastwest;rotatable=0;whiteSpace=wrap;html=1;" vertex="1" parent="Mqjfje0jI8EnwAkRnA07-7">
          <mxGeometry y="90" width="260" height="30" as="geometry" />
        </mxCell>
        <mxCell id="Mqjfje0jI8EnwAkRnA07-14" value="&amp;nbsp;- fechaSalida: LocalDateTime" style="text;html=1;align=left;verticalAlign=middle;whiteSpace=wrap;rounded=0;" vertex="1" parent="Mqjfje0jI8EnwAkRnA07-7">
          <mxGeometry y="120" width="260" height="30" as="geometry" />
        </mxCell>
        <mxCell id="Mqjfje0jI8EnwAkRnA07-15" value="&amp;nbsp;- duracionMinutos: int" style="text;html=1;align=left;verticalAlign=middle;whiteSpace=wrap;rounded=0;" vertex="1" parent="Mqjfje0jI8EnwAkRnA07-7">
          <mxGeometry y="150" width="260" height="30" as="geometry" />
        </mxCell>
        <mxCell id="Mqjfje0jI8EnwAkRnA07-16" value="&amp;nbsp;- precio: bigDecimal" style="text;html=1;align=left;verticalAlign=middle;whiteSpace=wrap;rounded=0;" vertex="1" parent="Mqjfje0jI8EnwAkRnA07-7">
          <mxGeometry y="180" width="260" height="30" as="geometry" />
        </mxCell>
        <mxCell id="Mqjfje0jI8EnwAkRnA07-17" value="&amp;nbsp;- empresa: Usuario" style="text;html=1;align=left;verticalAlign=middle;whiteSpace=wrap;rounded=0;" vertex="1" parent="Mqjfje0jI8EnwAkRnA07-7">
          <mxGeometry y="210" width="260" height="30" as="geometry" />
        </mxCell>
        <mxCell id="Mqjfje0jI8EnwAkRnA07-18" value="&amp;nbsp;- nave: Nave" style="text;html=1;align=left;verticalAlign=middle;whiteSpace=wrap;rounded=0;" vertex="1" parent="Mqjfje0jI8EnwAkRnA07-7">
          <mxGeometry y="240" width="260" height="30" as="geometry" />
        </mxCell>
        <mxCell id="Mqjfje0jI8EnwAkRnA07-19" value="&amp;nbsp;- usuariosQueLoLikearon: arrayList&amp;lt;Usuario&amp;gt;" style="text;html=1;align=left;verticalAlign=middle;whiteSpace=wrap;rounded=0;" vertex="1" parent="Mqjfje0jI8EnwAkRnA07-7">
          <mxGeometry y="270" width="260" height="30" as="geometry" />
        </mxCell>
        <mxCell id="Mqjfje0jI8EnwAkRnA07-13" value="" style="rounded=0;whiteSpace=wrap;html=1;fillColor=none;" vertex="1" parent="Mqjfje0jI8EnwAkRnA07-7">
          <mxGeometry y="300" width="260" height="60" as="geometry" />
        </mxCell>
        <mxCell id="Mqjfje0jI8EnwAkRnA07-52" style="edgeStyle=orthogonalEdgeStyle;rounded=0;orthogonalLoop=1;jettySize=auto;html=1;entryX=0.5;entryY=1;entryDx=0;entryDy=0;endArrow=none;startFill=0;" edge="1" parent="1" source="Mqjfje0jI8EnwAkRnA07-20" target="Mqjfje0jI8EnwAkRnA07-48">
          <mxGeometry relative="1" as="geometry" />
        </mxCell>
        <mxCell id="Mqjfje0jI8EnwAkRnA07-20" value="Usuario" style="swimlane;fontStyle=0;childLayout=stackLayout;horizontal=1;startSize=30;horizontalStack=0;resizeParent=1;resizeParentMax=0;resizeLast=0;collapsible=1;marginBottom=0;whiteSpace=wrap;html=1;" vertex="1" parent="1">
          <mxGeometry x="490" y="610" width="200" height="300" as="geometry" />
        </mxCell>
        <mxCell id="Mqjfje0jI8EnwAkRnA07-21" value="- id: Long" style="text;strokeColor=none;fillColor=none;align=left;verticalAlign=middle;spacingLeft=4;spacingRight=4;overflow=hidden;points=[[0,0.5],[1,0.5]];portConstraint=eastwest;rotatable=0;whiteSpace=wrap;html=1;" vertex="1" parent="Mqjfje0jI8EnwAkRnA07-20">
          <mxGeometry y="30" width="200" height="30" as="geometry" />
        </mxCell>
        <mxCell id="Mqjfje0jI8EnwAkRnA07-22" value="- nombre: String" style="text;strokeColor=none;fillColor=none;align=left;verticalAlign=middle;spacingLeft=4;spacingRight=4;overflow=hidden;points=[[0,0.5],[1,0.5]];portConstraint=eastwest;rotatable=0;whiteSpace=wrap;html=1;" vertex="1" parent="Mqjfje0jI8EnwAkRnA07-20">
          <mxGeometry y="60" width="200" height="30" as="geometry" />
        </mxCell>
        <mxCell id="Mqjfje0jI8EnwAkRnA07-23" value="- email: String" style="text;strokeColor=none;fillColor=none;align=left;verticalAlign=middle;spacingLeft=4;spacingRight=4;overflow=hidden;points=[[0,0.5],[1,0.5]];portConstraint=eastwest;rotatable=0;whiteSpace=wrap;html=1;" vertex="1" parent="Mqjfje0jI8EnwAkRnA07-20">
          <mxGeometry y="90" width="200" height="30" as="geometry" />
        </mxCell>
        <mxCell id="Mqjfje0jI8EnwAkRnA07-24" value="&amp;nbsp;- contraseÃ±a: String" style="text;html=1;align=left;verticalAlign=middle;whiteSpace=wrap;rounded=0;" vertex="1" parent="Mqjfje0jI8EnwAkRnA07-20">
          <mxGeometry y="120" width="200" height="30" as="geometry" />
        </mxCell>
        <mxCell id="Mqjfje0jI8EnwAkRnA07-25" value="&amp;nbsp;- reservas: ArrayList&amp;lt;Reserva&amp;gt;" style="text;html=1;align=left;verticalAlign=middle;whiteSpace=wrap;rounded=0;" vertex="1" parent="Mqjfje0jI8EnwAkRnA07-20">
          <mxGeometry y="150" width="200" height="30" as="geometry" />
        </mxCell>
        <mxCell id="Mqjfje0jI8EnwAkRnA07-26" value="&amp;nbsp;- viajesFavoritos: ArrayList&amp;lt;Viaje&amp;gt;" style="text;html=1;align=left;verticalAlign=middle;whiteSpace=wrap;rounded=0;" vertex="1" parent="Mqjfje0jI8EnwAkRnA07-20">
          <mxGeometry y="180" width="200" height="30" as="geometry" />
        </mxCell>
        <mxCell id="Mqjfje0jI8EnwAkRnA07-27" value="&amp;nbsp;- viajes: ArrayList&amp;lt;Viaje&amp;gt;" style="text;html=1;align=left;verticalAlign=middle;whiteSpace=wrap;rounded=0;" vertex="1" parent="Mqjfje0jI8EnwAkRnA07-20">
          <mxGeometry y="210" width="200" height="30" as="geometry" />
        </mxCell>
        <mxCell id="Mqjfje0jI8EnwAkRnA07-30" value="" style="rounded=0;whiteSpace=wrap;html=1;fillColor=none;" vertex="1" parent="Mqjfje0jI8EnwAkRnA07-20">
          <mxGeometry y="240" width="200" height="60" as="geometry" />
        </mxCell>
        <mxCell id="Mqjfje0jI8EnwAkRnA07-50" style="edgeStyle=orthogonalEdgeStyle;rounded=0;orthogonalLoop=1;jettySize=auto;html=1;entryX=0;entryY=0;entryDx=0;entryDy=0;endArrow=none;startFill=0;" edge="1" parent="1" source="Mqjfje0jI8EnwAkRnA07-31" target="Mqjfje0jI8EnwAkRnA07-40">
          <mxGeometry relative="1" as="geometry">
            <Array as="points">
              <mxPoint x="440" y="185" />
              <mxPoint x="440" y="185" />
            </Array>
          </mxGeometry>
        </mxCell>
        <mxCell id="Mqjfje0jI8EnwAkRnA07-31" value="Nave" style="swimlane;fontStyle=0;childLayout=stackLayout;horizontal=1;startSize=30;horizontalStack=0;resizeParent=1;resizeParentMax=0;resizeLast=0;collapsible=1;marginBottom=0;whiteSpace=wrap;html=1;" vertex="1" parent="1">
          <mxGeometry x="80" y="185" width="240" height="300" as="geometry" />
        </mxCell>
        <mxCell id="Mqjfje0jI8EnwAkRnA07-32" value="- id: Long" style="text;strokeColor=none;fillColor=none;align=left;verticalAlign=middle;spacingLeft=4;spacingRight=4;overflow=hidden;points=[[0,0.5],[1,0.5]];portConstraint=eastwest;rotatable=0;whiteSpace=wrap;html=1;" vertex="1" parent="Mqjfje0jI8EnwAkRnA07-31">
          <mxGeometry y="30" width="240" height="30" as="geometry" />
        </mxCell>
        <mxCell id="Mqjfje0jI8EnwAkRnA07-33" value="- nombre: String" style="text;strokeColor=none;fillColor=none;align=left;verticalAlign=middle;spacingLeft=4;spacingRight=4;overflow=hidden;points=[[0,0.5],[1,0.5]];portConstraint=eastwest;rotatable=0;whiteSpace=wrap;html=1;" vertex="1" parent="Mqjfje0jI8EnwAkRnA07-31">
          <mxGeometry y="60" width="240" height="30" as="geometry" />
        </mxCell>
        <mxCell id="Mqjfje0jI8EnwAkRnA07-34" value="- modelo: String" style="text;strokeColor=none;fillColor=none;align=left;verticalAlign=middle;spacingLeft=4;spacingRight=4;overflow=hidden;points=[[0,0.5],[1,0.5]];portConstraint=eastwest;rotatable=0;whiteSpace=wrap;html=1;" vertex="1" parent="Mqjfje0jI8EnwAkRnA07-31">
          <mxGeometry y="90" width="240" height="30" as="geometry" />
        </mxCell>
        <mxCell id="Mqjfje0jI8EnwAkRnA07-35" value="&amp;nbsp;- capacidad: int" style="text;html=1;align=left;verticalAlign=middle;whiteSpace=wrap;rounded=0;" vertex="1" parent="Mqjfje0jI8EnwAkRnA07-31">
          <mxGeometry y="120" width="240" height="30" as="geometry" />
        </mxCell>
        <mxCell id="Mqjfje0jI8EnwAkRnA07-36" value="&amp;nbsp;- filas: int" style="text;html=1;align=left;verticalAlign=middle;whiteSpace=wrap;rounded=0;" vertex="1" parent="Mqjfje0jI8EnwAkRnA07-31">
          <mxGeometry y="150" width="240" height="30" as="geometry" />
        </mxCell>
        <mxCell id="Mqjfje0jI8EnwAkRnA07-37" value="&amp;nbsp;- columnas: int" style="text;html=1;align=left;verticalAlign=middle;whiteSpace=wrap;rounded=0;" vertex="1" parent="Mqjfje0jI8EnwAkRnA07-31">
          <mxGeometry y="180" width="240" height="30" as="geometry" />
        </mxCell>
        <mxCell id="Mqjfje0jI8EnwAkRnA07-38" value="&amp;nbsp;- disposiciÃ³nAsientos: ArrayList&amp;lt;Reserva&amp;gt;" style="text;html=1;align=left;verticalAlign=middle;whiteSpace=wrap;rounded=0;" vertex="1" parent="Mqjfje0jI8EnwAkRnA07-31">
          <mxGeometry y="210" width="240" height="30" as="geometry" />
        </mxCell>
        <mxCell id="Mqjfje0jI8EnwAkRnA07-39" value="" style="rounded=0;whiteSpace=wrap;html=1;fillColor=none;" vertex="1" parent="Mqjfje0jI8EnwAkRnA07-31">
          <mxGeometry y="240" width="240" height="60" as="geometry" />
        </mxCell>
        <mxCell id="Mqjfje0jI8EnwAkRnA07-40" value="Reserva" style="swimlane;fontStyle=0;childLayout=stackLayout;horizontal=1;startSize=30;horizontalStack=0;resizeParent=1;resizeParentMax=0;resizeLast=0;collapsible=1;marginBottom=0;whiteSpace=wrap;html=1;" vertex="1" parent="1">
          <mxGeometry x="470" y="185" width="240" height="330" as="geometry" />
        </mxCell>
        <mxCell id="Mqjfje0jI8EnwAkRnA07-41" value="- id: Long" style="text;strokeColor=none;fillColor=none;align=left;verticalAlign=middle;spacingLeft=4;spacingRight=4;overflow=hidden;points=[[0,0.5],[1,0.5]];portConstraint=eastwest;rotatable=0;whiteSpace=wrap;html=1;" vertex="1" parent="Mqjfje0jI8EnwAkRnA07-40">
          <mxGeometry y="30" width="240" height="30" as="geometry" />
        </mxCell>
        <mxCell id="Mqjfje0jI8EnwAkRnA07-42" value="- usuario: Usuario" style="text;strokeColor=none;fillColor=none;align=left;verticalAlign=middle;spacingLeft=4;spacingRight=4;overflow=hidden;points=[[0,0.5],[1,0.5]];portConstraint=eastwest;rotatable=0;whiteSpace=wrap;html=1;" vertex="1" parent="Mqjfje0jI8EnwAkRnA07-40">
          <mxGeometry y="60" width="240" height="30" as="geometry" />
        </mxCell>
        <mxCell id="Mqjfje0jI8EnwAkRnA07-43" value="- viaje: Viaje" style="text;strokeColor=none;fillColor=none;align=left;verticalAlign=middle;spacingLeft=4;spacingRight=4;overflow=hidden;points=[[0,0.5],[1,0.5]];portConstraint=eastwest;rotatable=0;whiteSpace=wrap;html=1;" vertex="1" parent="Mqjfje0jI8EnwAkRnA07-40">
          <mxGeometry y="90" width="240" height="30" as="geometry" />
        </mxCell>
        <mxCell id="Mqjfje0jI8EnwAkRnA07-44" value="&amp;nbsp;- nave: Nave" style="text;html=1;align=left;verticalAlign=middle;whiteSpace=wrap;rounded=0;" vertex="1" parent="Mqjfje0jI8EnwAkRnA07-40">
          <mxGeometry y="120" width="240" height="30" as="geometry" />
        </mxCell>
        <mxCell id="Mqjfje0jI8EnwAkRnA07-45" value="&amp;nbsp;- fechaReserva: LocalDateTime" style="text;html=1;align=left;verticalAlign=middle;whiteSpace=wrap;rounded=0;" vertex="1" parent="Mqjfje0jI8EnwAkRnA07-40">
          <mxGeometry y="150" width="240" height="30" as="geometry" />
        </mxCell>
        <mxCell id="Mqjfje0jI8EnwAkRnA07-46" value="&amp;nbsp;- estado: String" style="text;html=1;align=left;verticalAlign=middle;whiteSpace=wrap;rounded=0;" vertex="1" parent="Mqjfje0jI8EnwAkRnA07-40">
          <mxGeometry y="180" width="240" height="30" as="geometry" />
        </mxCell>
        <mxCell id="Mqjfje0jI8EnwAkRnA07-49" value="&amp;nbsp;- columna: int" style="text;html=1;align=left;verticalAlign=middle;whiteSpace=wrap;rounded=0;" vertex="1" parent="Mqjfje0jI8EnwAkRnA07-40">
          <mxGeometry y="210" width="240" height="30" as="geometry" />
        </mxCell>
        <mxCell id="Mqjfje0jI8EnwAkRnA07-47" value="&amp;nbsp;- fila: int" style="text;html=1;align=left;verticalAlign=middle;whiteSpace=wrap;rounded=0;" vertex="1" parent="Mqjfje0jI8EnwAkRnA07-40">
          <mxGeometry y="240" width="240" height="30" as="geometry" />
        </mxCell>
        <mxCell id="Mqjfje0jI8EnwAkRnA07-48" value="" style="rounded=0;whiteSpace=wrap;html=1;fillColor=none;" vertex="1" parent="Mqjfje0jI8EnwAkRnA07-40">
          <mxGeometry y="270" width="240" height="60" as="geometry" />
        </mxCell>
        <mxCell id="Mqjfje0jI8EnwAkRnA07-53" style="edgeStyle=orthogonalEdgeStyle;rounded=0;orthogonalLoop=1;jettySize=auto;html=1;entryX=0;entryY=0;entryDx=0;entryDy=0;endArrow=none;startFill=0;" edge="1" parent="1" source="Mqjfje0jI8EnwAkRnA07-18" target="Mqjfje0jI8EnwAkRnA07-20">
          <mxGeometry relative="1" as="geometry">
            <Array as="points">
              <mxPoint x="490" y="825" />
            </Array>
          </mxGeometry>
        </mxCell>
        <mxCell id="Mqjfje0jI8EnwAkRnA07-54" style="edgeStyle=orthogonalEdgeStyle;rounded=0;orthogonalLoop=1;jettySize=auto;html=1;endArrow=none;startFill=0;" edge="1" parent="1" source="Mqjfje0jI8EnwAkRnA07-39">
          <mxGeometry relative="1" as="geometry">
            <mxPoint x="200" y="570" as="targetPoint" />
            <Array as="points">
              <mxPoint x="200" y="570" />
            </Array>
          </mxGeometry>
        </mxCell>
        <mxCell id="Mqjfje0jI8EnwAkRnA07-55" value="&lt;font style=&quot;font-size: 15px;&quot;&gt;1..*&lt;/font&gt;" style="text;html=1;align=center;verticalAlign=middle;whiteSpace=wrap;rounded=0;" vertex="1" parent="1">
          <mxGeometry x="427" y="155" width="60" height="30" as="geometry" />
        </mxCell>
        <mxCell id="Mqjfje0jI8EnwAkRnA07-56" value="1" style="text;html=1;align=center;verticalAlign=middle;whiteSpace=wrap;rounded=0;fontSize=15;" vertex="1" parent="1">
          <mxGeometry x="300" y="155" width="60" height="30" as="geometry" />
        </mxCell>
        <mxCell id="Mqjfje0jI8EnwAkRnA07-57" value="&lt;font style=&quot;font-size: 15px;&quot;&gt;1..*&lt;/font&gt;" style="text;html=1;align=center;verticalAlign=middle;whiteSpace=wrap;rounded=0;" vertex="1" parent="1">
          <mxGeometry x="420" y="200" width="60" height="31" as="geometry" />
        </mxCell>
        <mxCell id="Mqjfje0jI8EnwAkRnA07-58" value="&lt;font style=&quot;font-size: 15px;&quot;&gt;1&lt;/font&gt;" style="text;html=1;align=center;verticalAlign=middle;whiteSpace=wrap;rounded=0;" vertex="1" parent="1">
          <mxGeometry x="329" y="720" width="60" height="31" as="geometry" />
        </mxCell>
        <mxCell id="Mqjfje0jI8EnwAkRnA07-59" value="&lt;font style=&quot;font-size: 15px;&quot;&gt;1&lt;/font&gt;" style="text;html=1;align=center;verticalAlign=middle;whiteSpace=wrap;rounded=0;" vertex="1" parent="1">
          <mxGeometry x="184" y="485" width="60" height="31" as="geometry" />
        </mxCell>
        <mxCell id="Mqjfje0jI8EnwAkRnA07-60" value="&lt;font style=&quot;font-size: 15px;&quot;&gt;1..*&lt;/font&gt;" style="text;html=1;align=center;verticalAlign=middle;whiteSpace=wrap;rounded=0;" vertex="1" parent="1">
          <mxGeometry x="190" y="539" width="60" height="31" as="geometry" />
        </mxCell>
        <mxCell id="Mqjfje0jI8EnwAkRnA07-61" value="&lt;font style=&quot;font-size: 15px;&quot;&gt;1..*&lt;/font&gt;" style="text;html=1;align=center;verticalAlign=middle;whiteSpace=wrap;rounded=0;" vertex="1" parent="1">
          <mxGeometry x="579" y="515" width="60" height="31" as="geometry" />
        </mxCell>
        <mxCell id="Mqjfje0jI8EnwAkRnA07-62" value="&lt;font style=&quot;font-size: 15px;&quot;&gt;1&lt;/font&gt;" style="text;html=1;align=center;verticalAlign=middle;whiteSpace=wrap;rounded=0;" vertex="1" parent="1">
          <mxGeometry x="573" y="578" width="60" height="31" as="geometry" />
        </mxCell>
        <mxCell id="Mqjfje0jI8EnwAkRnA07-63" value="&lt;font style=&quot;font-size: 15px;&quot;&gt;1..*&lt;/font&gt;" style="text;html=1;align=center;verticalAlign=middle;whiteSpace=wrap;rounded=0;" vertex="1" parent="1">
          <mxGeometry x="330" y="794" width="60" height="31" as="geometry" />
        </mxCell>
        <mxCell id="Mqjfje0jI8EnwAkRnA07-64" value="&lt;font style=&quot;font-size: 15px;&quot;&gt;1..*&lt;/font&gt;" style="text;html=1;align=center;verticalAlign=middle;whiteSpace=wrap;rounded=0;" vertex="1" parent="1">
          <mxGeometry x="441" y="795" width="59" height="31" as="geometry" />
        </mxCell>
      </root>
    </mxGraphModel>
  </diagram>
</mxfile>
